# xmcd
#
# Track frame offsets:
#	150
#	23305
#	37341
#	57036
#	78981
#	101601
#	122142
#	138248
#	150936
#	169748
#	188808
#	206867
#	222285
#
# Disc length: 3180 seconds
#
# Revision: 0
# Processed by: cddbd v1.5.2PL0 Copyright (c) Steve Scherf et al.
# Submitted via: dBpowerAMP V4.0
#
DISCID=a90c6a0d
DTITLE=Josh Abbott Band - Scapegoat
DYEAR=2008
DGENRE=Texas Country
TTITLE0=Miss You Again
TTITLE1=We're All In
TTITLE2=Buried Me
TTITLE3=Here I Stand
TTITLE4=I'll Trust You
TTITLE5=Good Night For Dancing
TTITLE6=Scapegoat (Heart of Stone)
TTITLE7=Distant
TTITLE8=On My Mind
TTITLE9=Her Eyes Turn Green
TTITLE10=If I See You Tonight
TTITLE11=Evil Woman 
TTITLE12=I Guess It's Time
EXTD=
EXTT0=
EXTT1=
EXTT2=
EXTT3=
EXTT4=
EXTT5=
EXTT6=
EXTT7=
EXTT8=
EXTT9=
EXTT10=
EXTT11=
EXTT12=
PLAYORDER=
